<svg width="25" height="24" viewBox="0 0 25 24" fill="none" xmlns="http://www.w3.org/2000/svg">
<path d="M21.5 9.75H20.7153C20.5269 7.70144 19.5799 5.7972 18.06 4.41077C16.5402 3.02433 14.5572 2.25574 12.5 2.25574C10.4428 2.25574 8.45981 3.02433 6.93998 4.41077C5.42015 5.7972 4.47314 7.70144 4.28469 9.75H3.5C3.30109 9.75 3.11032 9.82902 2.96967 9.96967C2.82902 10.1103 2.75 10.3011 2.75 10.5C2.7533 12.2836 3.24415 14.0324 4.16948 15.5572C5.09481 17.082 6.4194 18.3248 8 19.1512V19.5C8 19.8978 8.15804 20.2794 8.43934 20.5607C8.72064 20.842 9.10218 21 9.5 21H15.5C15.8978 21 16.2794 20.842 16.5607 20.5607C16.842 20.2794 17 19.8978 17 19.5V19.1512C18.5806 18.3248 19.9052 17.082 20.8305 15.5572C21.7558 14.0324 22.2467 12.2836 22.25 10.5C22.25 10.3011 22.171 10.1103 22.0303 9.96967C21.8897 9.82902 21.6989 9.75 21.5 9.75ZM19.2069 9.75H14.3862C15.2955 8.38583 16.6712 7.40017 18.2553 6.97781C18.7733 7.8203 19.0982 8.76702 19.2069 9.75ZM16.7638 5.27156C16.9356 5.41219 17.1003 5.56062 17.2578 5.71687C15.2613 6.4192 13.6114 7.86263 12.65 9.74812H9.88437C10.3531 8.43415 11.2161 7.29694 12.3555 6.49185C13.4948 5.68677 14.8549 5.25306 16.25 5.25C16.4216 5.25 16.5931 5.25844 16.7638 5.27156ZM12.5 3.75C13.1018 3.7504 13.7009 3.83143 14.2812 3.99094C12.8679 4.34154 11.572 5.0585 10.524 6.06958C9.47606 7.08066 8.71316 8.35011 8.31219 9.75H5.79312C5.97917 8.10081 6.76562 6.57775 8.00254 5.47119C9.23946 4.36464 10.8403 3.75197 12.5 3.75ZM15.9369 18C15.806 18.0601 15.6953 18.1566 15.6178 18.278C15.5404 18.3993 15.4994 18.5404 15.5 18.6844V19.5H9.5V18.6844C9.50055 18.5404 9.45965 18.3993 9.38218 18.278C9.30471 18.1566 9.19395 18.0601 9.06312 18C7.74417 17.3931 6.60807 16.4499 5.76885 15.2651C4.92963 14.0803 4.41681 12.6956 4.28188 11.25H20.7153C20.5806 12.6953 20.0682 14.0798 19.2295 15.2646C18.3908 16.4493 17.2553 17.3927 15.9369 18Z" fill="#B4B5B7"/>
</svg>
