<svg width="24" height="24" viewBox="0 0 24 24" fill="none" xmlns="http://www.w3.org/2000/svg">
<path d="M23 8.81387C23 15.3779 13.2697 20.691 12.8553 20.9105C12.7461 20.9692 12.624 21 12.5 21C12.376 21 12.2539 20.9692 12.1447 20.9105C11.7303 20.691 2 15.3779 2 8.81387C2.00174 7.27247 2.61468 5.7947 3.70436 4.70476C4.79404 3.61483 6.27146 3.00174 7.8125 3C9.74844 3 11.4434 3.8327 12.5 5.24022C13.5566 3.8327 15.2516 3 17.1875 3C18.7285 3.00174 20.206 3.61483 21.2956 4.70476C22.3853 5.7947 22.9983 7.27247 23 8.81387Z" fill="#DA2524"/>
</svg>
