<svg width="24" height="24" viewBox="0 0 24 24" fill="none" xmlns="http://www.w3.org/2000/svg">
<path d="M12.4433 3.19532C12.3886 3.13407 12.3206 3.08489 12.2441 3.05117C12.1676 3.01746 12.0844 3 12.0002 3C11.916 3 11.8328 3.01746 11.7564 3.05117C11.6799 3.08489 11.6119 3.13407 11.5572 3.19532C10.0181 4.91944 5 10.8801 5 15.2954C5 19.4099 7.70472 22 12 22C16.2953 22 19 19.4099 19 15.2954C19 10.8801 13.9819 4.91944 12.4433 3.19532ZM12.7778 19.5789C12.6843 19.5791 12.5922 19.5578 12.5092 19.5168C12.4261 19.4758 12.3546 19.4162 12.3006 19.3432C12.2466 19.2702 12.2116 19.1859 12.1987 19.0972C12.1859 19.0086 12.1954 18.9183 12.2265 18.8339C12.2663 18.7238 12.3413 18.6286 12.4409 18.5617C12.5405 18.4948 12.6596 18.4597 12.7812 18.4614C13.5533 18.4598 14.2933 18.1653 14.8393 17.6424C15.3853 17.1195 15.6928 16.4106 15.6944 15.6711C15.6927 15.5546 15.7293 15.4406 15.7991 15.3452C15.8689 15.2498 15.9684 15.1779 16.0833 15.1398C16.1714 15.11 16.2657 15.1009 16.3582 15.1132C16.4508 15.1256 16.5389 15.159 16.6151 15.2108C16.6913 15.2625 16.7534 15.331 16.7963 15.4106C16.8391 15.4901 16.8613 15.5783 16.8611 15.6678C16.86 16.7048 16.4294 17.6989 15.6639 18.4321C14.8983 19.1654 13.8604 19.5778 12.7778 19.5789Z" fill="#2466E4"/>
</svg>
