<svg width="24" height="24" viewBox="0 0 24 24" fill="none" xmlns="http://www.w3.org/2000/svg">
<path d="M20.8681 13L13 20.8671C14.0816 21.683 15.4216 22.0806 16.7732 21.9864C18.1248 21.8923 19.3968 21.3128 20.3548 20.3548C21.3128 19.3968 21.8923 18.1248 21.9864 16.7732C22.0806 15.4216 21.6841 14.0816 20.8681 13Z" fill="#DC5116"/>
<path fill-rule="evenodd" clip-rule="evenodd" d="M12.2384 20L20 12.2384L11.7616 4L4 11.7616L12.2384 20ZM9.84807 11.2827C9.94497 11.3763 10.0223 11.4882 10.0754 11.612C10.1286 11.7358 10.1566 11.8689 10.1578 12.0037C10.1589 12.1384 10.1333 12.272 10.0823 12.3967C10.0312 12.5213 9.9559 12.6346 9.86064 12.7299C9.76538 12.8251 9.6521 12.9005 9.52741 12.9515C9.40272 13.0025 9.26912 13.0282 9.13441 13.027C8.99969 13.0258 8.86656 12.9979 8.74277 12.9447C8.61899 12.8915 8.50704 12.8142 8.41344 12.7173C8.22863 12.526 8.12636 12.2697 8.12868 12.0037C8.13099 11.7376 8.23769 11.4832 8.4258 11.295C8.61391 11.1069 8.86839 11.0002 9.13441 10.9979C9.40043 10.9956 9.65671 11.0979 9.84807 11.2827ZM12.7173 15.5876C12.8116 15.4934 12.8864 15.3815 12.9374 15.2584C12.9884 15.1353 13.0147 15.0034 13.0148 14.8701C13.0148 14.7368 12.9886 14.6049 12.9377 14.4817C12.8867 14.3586 12.812 14.2467 12.7178 14.1524C12.6236 14.0582 12.5118 13.9834 12.3887 13.9323C12.2656 13.8813 12.1336 13.855 12.0004 13.855C11.8671 13.8549 11.7351 13.8811 11.612 13.9321C11.4889 13.983 11.377 14.0577 11.2827 14.1519C11.0923 14.3422 10.9853 14.6003 10.9852 14.8694C10.9851 15.1385 11.0919 15.3967 11.2822 15.5871C11.4724 15.7774 11.7305 15.8844 11.9996 15.8845C12.2688 15.8846 12.5269 15.7778 12.7173 15.5876ZM12.7173 8.41344C12.8142 8.50704 12.8915 8.61899 12.9447 8.74277C12.9979 8.86656 13.0258 8.99969 13.027 9.13441C13.0282 9.26912 13.0025 9.40272 12.9515 9.52741C12.9005 9.6521 12.8251 9.76538 12.7299 9.86064C12.6346 9.9559 12.5213 10.0312 12.3967 10.0823C12.272 10.1333 12.1384 10.1589 12.0037 10.1578C11.8689 10.1566 11.7358 10.1286 11.612 10.0754C11.4882 10.0223 11.3763 9.94497 11.2827 9.84807C11.0979 9.65671 10.9956 9.40043 10.9979 9.13441C11.0002 8.86839 11.1069 8.61391 11.295 8.4258C11.4832 8.23769 11.7376 8.13099 12.0037 8.12868C12.2697 8.12636 12.526 8.22863 12.7173 8.41344ZM15.5866 12.7173C15.6835 12.6237 15.7608 12.5118 15.8139 12.388C15.8671 12.2642 15.8951 12.1311 15.8963 11.9963C15.8974 11.8616 15.8718 11.728 15.8207 11.6033C15.7697 11.4787 15.6944 11.3654 15.5991 11.2701C15.5039 11.1749 15.3906 11.0995 15.2659 11.0485C15.1412 10.9975 15.0076 10.9718 14.8729 10.973C14.7382 10.9742 14.605 11.0021 14.4813 11.0553C14.3575 11.1085 14.2455 11.1858 14.1519 11.2827C13.9671 11.474 13.8649 11.7303 13.8672 11.9963C13.8695 12.2624 13.9762 12.5168 14.1643 12.705C14.3524 12.8931 14.6069 12.9998 14.8729 13.0021C15.1389 13.0044 15.3952 12.9021 15.5866 12.7173Z" fill="#DC5116"/>
<path d="M3.13185 11L11 3.13289C9.91841 2.31696 8.57836 1.91944 7.2268 2.01359C5.87524 2.10774 4.60324 2.68721 3.64523 3.64523C2.68721 4.60324 2.10774 5.87524 2.01359 7.2268C1.91944 8.57836 2.31696 9.91841 3.13289 11" fill="#DC5116"/>
</svg>
