<svg width="24" height="24" viewBox="0 0 24 24" fill="none" xmlns="http://www.w3.org/2000/svg">
<path fill-rule="evenodd" clip-rule="evenodd" d="M4 3C3.44772 3 3 3.44772 3 4C3 4.55228 3.44772 5 4 5H20C20.5523 5 21 4.55228 21 4C21 3.44772 20.5523 3 20 3H4ZM14 14H19V20C19 20.5523 19.4477 21 20 21C20.5523 21 21 20.5523 21 20V14C21.5523 14 22 13.5523 22 13V12.0828C22 12.0277 21.9954 11.9727 21.9864 11.9184L21.1393 6.8356C21.0589 6.35341 20.6417 6 20.1529 6H3.84713C3.35829 6 2.9411 6.35341 2.86073 6.8356L2.01361 11.9184C2.00455 11.9727 2 12.0277 2 12.0828V13C2 13.5523 2.44772 14 3 14L3 20C3 20.5523 3.44771 21 4 21H13C13.5523 21 14 20.5523 14 20V14ZM12 14H5V15V16L5 19H12V16V15V14Z" fill="black"/>
</svg>
