<svg width="24" height="24" viewBox="0 0 24 24" fill="none" xmlns="http://www.w3.org/2000/svg">
<g clip-path="url(#clip0_91_4380)">
<path fill-rule="evenodd" clip-rule="evenodd" d="M4.0037 4.84105C4.34495 3.87436 5.34792 3.36116 6.35861 3.5327C7.31168 3.69447 7.68304 4.90748 7.06948 5.6545C6.8671 5.90091 6.67186 6.1569 6.50175 6.41027C7.51084 6.0098 8.62122 5.71618 9.80005 5.55194V5.32228C9.80005 4.76999 10.2478 4.32228 10.8 4.32228H13.2C13.7523 4.32228 14.2 4.76999 14.2 5.32228V5.55196C15.3788 5.71619 16.4892 6.00981 17.4982 6.41027C17.3281 6.1569 17.1329 5.90091 16.9305 5.6545C16.317 4.90748 16.6883 3.69447 17.6414 3.5327C18.6521 3.36116 19.6551 3.87436 19.9963 4.84105C20.2401 5.5317 20.5033 6.40202 20.6917 7.36186C20.7676 7.74797 20.7995 8.10059 20.8 8.42018C22.1814 9.68213 23 11.2509 23 12.9508C23 17.1205 18.0751 20.5007 12 20.5007C5.92487 20.5007 1 17.1205 1 12.9508C1 11.2509 1.81858 9.68213 3.19996 8.42018C3.20051 8.10059 3.23245 7.74797 3.30826 7.36186C3.49674 6.40202 3.75989 5.5317 4.0037 4.84105ZM4.84998 11.7152C4.84998 10.6106 5.74541 9.71516 6.84998 9.71516H17.15C18.2545 9.71516 19.15 10.6106 19.15 11.7152V14.1865C19.15 15.2911 18.2545 16.1865 17.15 16.1865H6.84998C5.74541 16.1865 4.84998 15.2911 4.84998 14.1865V11.7152ZM8 12C7.44772 12 7 12.4477 7 13C7 13.5523 7.44772 14 8 14H16C16.5523 14 17 13.5523 17 13C17 12.4477 16.5523 12 16 12H8Z" fill="white"/>
</g>
<defs>
<clipPath id="clip0_91_4380">
<rect width="24" height="24" fill="white"/>
</clipPath>
</defs>
</svg>
